<!-- Generator: Adobe Illustrator 19.0.0, SVG Export Plug-In  -->
<svg version="1.1"
	 xmlns="http://www.w3.org/2000/svg" xmlns:xlink="http://www.w3.org/1999/xlink" xmlns:a="http://ns.adobe.com/AdobeSVGViewerExtensions/3.0/"
	 x="0px" y="0px" width="360px" height="338.3618px" viewBox="0 0 360 338.3618" style="enable-background:new 0 0 360 338.3618;"
	 xml:space="preserve">
<style type="text/css">
	.st0{fill:#FFFFFF;}
	.st1{fill:#030303;}
</style>
<defs>
</defs>
<g>
	<g>
		<g>
			<path class="st0" d="M182.2271,334.6295c-0.9089,0-1.8014-0.026-2.6939-0.0683h-0.0019
				c-0.5688,0.0443-1.1639,0.0683-1.7589,0.0683c-20.885,0-34.2905-9.4753-47.2526-18.6403
				c-8.9506-6.3246-17.3965-12.2948-27.3485-13.9523c-4.8559-0.8036-9.6897-1.2121-14.3607-1.2121
				c-8.4148,0-15.0537,1.299-19.9003,2.2469c-2.9453,0.5765-5.486,1.0717-7.4168,1.0717c-2.0177,0-4.2037-0.4362-5.1535-3.6826
				c-0.8258-2.8123-1.4227-5.5359-1.9973-8.1708c-1.4803-6.7812-2.5314-10.9517-5.3734-11.3877
				C15.8448,275.786,6.3641,268.809,4.2502,263.8589c-0.2993-0.7079-0.4694-1.4174-0.5101-2.1193
				c-0.1072-1.9015,1.24-3.581,3.1192-3.8877c50.9202-8.3853,73.7546-60.4288,74.7026-62.6388
				c0.0258-0.061,0.0536-0.1201,0.0813-0.1811c3.1171-6.3157,3.7268-11.798,1.82-16.2917
				c-3.4942-8.2353-14.891-11.8551-22.4354-14.2479c-1.8458-0.5839-3.5957-1.1363-4.9759-1.6814
				c-15.0537-5.9515-16.3065-12.0603-15.7152-15.1737c1.0088-5.3049,8.0988-9.0022,13.8323-9.0022
				c1.5723,0,2.9564,0.2788,4.1204,0.8221c6.772,3.1726,12.8752,4.7802,18.1412,4.7802c7.2764,0,10.4526-3.0581,10.8408-3.4589
				c-0.185-3.4461-0.414-7.0457-0.6487-10.7596c-1.5168-24.0743-3.396-53.9876,4.2204-71.0626
				c22.827-51.1828,71.2344-55.159,85.5267-55.159c0.3659,0,6.2658-0.0627,6.2658-0.0627l0.8462-0.0038
				c14.3256,0,62.8383,3.9838,85.6785,55.1942c7.6182,17.0843,5.7334,47.0235,4.2146,71.0792l-0.0629,1.0459
				c-0.2104,3.35-0.4138,6.6058-0.5839,9.7228c0.3641,0.3715,3.2854,3.1838,9.8819,3.4368h0.0074
				c5.013-0.192,10.7743-1.7902,17.0971-4.7523c1.8534-0.8648,3.9117-1.0476,5.3123-1.0476c2.1397,0,4.3091,0.414,6.1105,1.1659
				l0.1091,0.0444c5.1145,1.8126,8.4647,5.3973,8.5365,9.1427c0.0666,3.5273-2.6258,8.8304-15.8352,14.0484
				c-1.3691,0.5377-3.1189,1.0938-4.9722,1.6814c-7.5518,2.3965-18.9451,6.0126-22.4372,14.2462
				c-1.9087,4.492-1.2972,9.9704,1.8181,16.2896c0.0277,0.0611,0.0592,0.1201,0.0832,0.185
				c0.9477,2.208,23.7618,54.2368,74.7045,62.6314c1.881,0.3102,3.2242,1.988,3.1208,3.8912
				c-0.0425,0.7133-0.2162,1.432-0.521,2.1306c-2.1011,4.9148-11.5744,11.8827-44.7101,17.0028
				c-2.7068,0.4158-3.7563,3.9432-5.3715,11.3397c-0.5874,2.6921-1.1825,5.3363-2.0011,8.1172
				c-0.7057,2.4131-2.2097,3.5422-4.7395,3.5422h-0.4119c-1.7555,0-4.2517-0.3141-7.4151-0.935
				c-5.6096-1.0975-11.8993-2.1083-19.902-2.1083c-4.6731,0-9.5085,0.4084-14.368,1.2121
				c-9.941,1.6575-18.3814,7.6164-27.3153,13.9321C216.5215,325.1543,203.1179,334.6295,182.2271,334.6295z"/>
			<path class="st1" d="M183.4818,7.4632c13.5606,0.0019,60.2625,3.64,82.2712,52.9823
				c7.2449,16.2436,5.3917,45.6766,3.9005,69.3239c-0.2366,3.7491-0.4657,7.3835-0.6522,10.8594l-0.0814,1.4909l0.9995,1.1107
				c0.3993,0.449,4.1686,4.3846,12.5446,4.7098l0.1404,0.0038l0.1368-0.0038c5.5375-0.2087,11.7794-1.9254,18.5588-5.1033
				c0.994-0.4676,2.3226-0.6947,3.7268-0.6947c1.6039,0,3.3038,0.3009,4.708,0.8922l0.2106,0.0852
				c3.5515,1.2435,6.0645,3.5938,6.107,5.7151c0.0202,1.2066-0.8814,5.5285-13.4757,10.5027
				c-1.2305,0.4878-2.8529,1.0014-4.7302,1.5945c-8.1949,2.6054-20.5766,6.53-24.745,16.3451
				c-2.3485,5.5396-1.7093,12.066,1.9068,19.4034c1.4892,3.4717,24.878,56.1735,77.5279,64.8486
				c-0.0147,0.2438-0.0739,0.521-0.2162,0.8425c-0.8943,2.1028-6.567,9.359-41.8553,14.806
				c-5.5247,0.852-6.879,7.0383-8.4498,14.2369c-0.5598,2.5741-1.1418,5.1702-1.9344,7.8604
				c-0.2385,0.813-0.2845,0.8611-1.1588,0.8611c-0.12,0-0.2549,0-0.4119,0l0,0c-1.5651,0-3.945-0.3253-6.6998-0.8646
				c-5.0019-0.9775-11.8609-2.1768-20.6173-2.1768c-4.8872,0-9.926,0.4249-14.976,1.2621
				c-10.7982,1.7979-19.5843,8.0118-28.8895,14.5841c-12.4889,8.8323-25.3992,17.9584-45.1001,17.9584
				c-0.8553,0-1.698-0.0276-2.5404-0.0683l-0.2219-0.0112l-0.2236,0.0205c-0.484,0.0404-0.97,0.059-1.4689,0.059
				c-19.6971,0-32.6128-9.126-45.0999-17.9545c-9.3015-6.5762-18.0894-12.7901-28.886-14.588
				c-5.0516-0.8372-10.0885-1.2621-14.9759-1.2621c-8.7547,0-15.6135,1.3341-20.6191,2.3134
				c-2.7533,0.5414-5.1366,1.0032-6.6981,1.0032c-1.2767,0-1.3027-0.0738-1.5725-0.9958c-0.7908-2.6921-1.371-5.3585-1.9328-7.9287
				c-1.5723-7.1989-2.9323-13.422-8.4498-14.2737c-35.2919-5.4491-40.9608-12.7237-41.857-14.8209
				c-0.1423-0.3252-0.2013-0.6097-0.2141-0.8572c52.6461-8.6734,76.0348-61.3693,77.524-64.8507
				c3.6161-7.3408,4.259-13.8636,1.9087-19.3995c-4.1649-9.8187-16.5484-13.7471-24.745-16.3525
				c-1.8773-0.5913-3.4997-1.1067-4.7303-1.5945c-10.6411-4.2018-13.9098-8.4352-13.4202-11.0016
				c0.5637-2.9584,5.691-5.9664,10.1645-5.9664c1.0071,0,1.8864,0.1607,2.5388,0.4676c7.2691,3.4017,13.908,5.1328,19.7229,5.1328
				c9.1519,0,13.2261-4.2589,13.6586-4.7412l0.9923-1.1087l-0.0813-1.4854c-0.1866-3.4702-0.414-7.1028-0.6522-10.8501
				c-1.4893-23.6473-3.3409-53.0599,3.904-69.3072c21.9237-49.1611,68.3965-52.9491,82.1179-52.9491
				c0.3383,0,6.3007-0.0592,6.3007-0.0592C182.9276,7.4652,183.1955,7.4632,183.4818,7.4632 M183.4818,0h-0.0148
				c-0.3102,0-0.6022,0-0.8795,0.0058l0,0c0,0-5.7704,0.0571-6.2287,0.0571c-14.8504,0-65.1811,4.1373-88.9266,57.3746
				c-7.986,17.9101-6.0717,48.3298-4.5362,72.7735c0.1811,2.8824,0.3733,5.8741,0.5377,8.7658
				c-1.2287,0.68-3.4721,1.5263-7.003,1.5263c-4.7136,0-10.2845-1.4875-16.5559-4.4273c-1.6647-0.7798-3.5845-1.1697-5.7058-1.1697
				c-7.3448,0-16.1308,4.832-17.4983,12.0346c-0.9867,5.1865,1.3341,12.7531,18.0083,19.3385
				c1.504,0.595,3.3131,1.1678,5.2238,1.7719c6.8883,2.1878,17.3004,5.4916,20.1257,12.147
				c1.4633,3.448,0.8794,7.8862-1.7315,13.1857c-0.0573,0.1201-0.1145,0.2384-0.1663,0.3622
				c-0.9164,2.1323-22.9527,52.3671-71.8773,60.4214c-3.7621,0.6208-6.4506,3.9764-6.2419,7.7826
				c0.0646,1.1327,0.3327,2.2599,0.7964,3.3537c3.6715,8.5845,19.1631,14.8745,47.3652,19.2516
				c0.9424,1.2751,1.9217,5.7781,2.5221,8.5221c0.5895,2.7068,1.1975,5.4987,2.064,8.444c0.85,2.8954,3.058,6.3562,8.7343,6.3562
				c2.293,0,4.9982-0.5284,8.13-1.1437c4.6987-0.9182,11.1326-2.1748,19.1871-2.1748c4.466,0,9.0965,0.3882,13.7584,1.1606
				c9.1001,1.5168,16.8329,6.9825,25.7853,13.311c12.8233,9.067,27.3448,19.3312,49.4181,19.3312
				c0.606,0,1.2158-0.0183,1.8183-0.0627c0.7169,0.0313,1.6463,0.0627,2.6365,0.0627c22.079,0,36.5985-10.2659,49.4127-19.3273
				c8.9727-6.3378,16.7-11.8015,25.8002-13.3148c4.6544-0.7724,9.2849-1.1606,13.7527-1.1606c7.6848,0,13.764,0.9775,19.1871,2.0364
				c3.3979,0.665,6.1326,1.0034,8.1301,1.0034l0.2087,0.0035h0.2032c4.1926,0,7.1508-2.2154,8.3243-6.2361
				c0.8499-2.8843,1.4596-5.6042,2.0619-8.3574c0.5969-2.7366,1.5742-7.2192,2.513-8.4866
				c28.2097-4.3794,43.6976-10.6597,47.3617-19.2075c0.4712-1.0938,0.7409-2.2302,0.8056-3.3721
				c0.2126-3.8081-2.4778-7.1601-6.238-7.7791c-48.947-8.0672-70.9647-58.2909-71.8794-60.4213
				c-0.0517-0.1221-0.1071-0.244-0.1681-0.3624c-2.6128-5.2991-3.1912-9.7338-1.7295-13.1819
				c2.8234-6.6554,13.2319-9.9592,20.1202-12.1432c1.927-0.6118,3.738-1.1883,5.2273-1.7757
				c12.2025-4.819,18.3241-10.7374,18.1948-17.5907c-0.1054-5.3824-4.298-10.1847-10.961-12.5646l-0.0202-0.0074
				c-2.2414-0.9294-4.9021-1.4376-7.5075-1.4376c-1.7812,0-4.4235,0.2422-6.8922,1.3969
				c-5.8038,2.7199-11.0198,4.1982-15.5172,4.3996c-2.9824-0.1384-4.9336-0.8906-6.046-1.504
				c0.1407-2.4798,0.2995-5.0333,0.4676-7.7014l0.0627-1.0367c1.5432-24.4604,3.4591-54.9057-4.5343-72.829
				C248.8126,4.1427,198.3748,0,183.4818,0L183.4818,0z"/>
		</g>
	</g>
</g>
</svg>
