<!-- Generator: Adobe Illustrator 19.0.0, SVG Export Plug-In  -->
<svg version="1.1"
	 xmlns="http://www.w3.org/2000/svg" xmlns:xlink="http://www.w3.org/1999/xlink" xmlns:a="http://ns.adobe.com/AdobeSVGViewerExtensions/3.0/"
	 x="0px" y="0px" width="257.717px" height="257.719px" viewBox="0 0 257.717 257.719"
	 style="enable-background:new 0 0 257.717 257.719;" xml:space="preserve">
<style type="text/css">
	.st0{fill:#FFFFFF;}
</style>
<defs>
</defs>
<path class="st0" d="M243.494,0H14.224C6.367,0,0,6.367,0,14.224v229.27c0,7.855,6.366,14.225,14.224,14.225h123.431v-99.803H104.07
	v-38.895h33.585V90.337c0-33.287,20.33-51.413,50.025-51.413c14.224,0,26.45,1.059,30.012,1.533v34.788l-20.596,0.009
	c-16.148,0-19.275,7.674-19.275,18.935v24.832h38.515l-5.016,38.895h-33.499v99.803h65.673c7.854,0,14.223-6.369,14.223-14.225
	V14.224C257.717,6.367,251.349,0,243.494,0z"/>
</svg>
