<!-- Generator: Adobe Illustrator 19.0.0, SVG Export Plug-In  -->
<svg version="1.1"
	 xmlns="http://www.w3.org/2000/svg" xmlns:xlink="http://www.w3.org/1999/xlink" xmlns:a="http://ns.adobe.com/AdobeSVGViewerExtensions/3.0/"
	 x="0px" y="0px" width="503.841px" height="503.841px" viewBox="0 0 503.841 503.841"
	 style="enable-background:new 0 0 503.841 503.841;" xml:space="preserve">
<style type="text/css">
	.st0{fill:#FFFFFF;}
</style>
<defs>
</defs>
<g>
	<path class="st0" d="M251.9205,45.3911c67.2658,0,75.2332,0.2565,101.7973,1.4685c24.5618,1.1208,37.9012,5.2245,46.7783,8.6744
		c11.7588,4.5698,20.1509,10.0294,28.966,18.8445c8.8155,8.8155,14.2751,17.2076,18.8449,28.9665
		c3.4499,8.877,7.5537,22.2164,8.6744,46.7778c1.212,26.5645,1.4685,34.5319,1.4685,101.7977s-0.2565,75.2332-1.4685,101.7973
		c-1.1207,24.5618-5.2245,37.9012-8.6744,46.7783c-4.5698,11.7588-10.0294,20.1509-18.8445,28.966
		c-8.8155,8.8155-17.2076,14.2751-28.9664,18.8449c-8.8771,3.4499-22.2165,7.5537-46.7783,8.6744
		c-26.5603,1.212-34.527,1.4685-101.7973,1.4685s-75.237-0.2565-101.7973-1.4685c-24.5618-1.1207-37.9012-5.2245-46.7782-8.6744
		c-11.7589-4.5698-20.151-10.0294-28.9661-18.8445c-8.8153-8.8153-14.2751-17.2076-18.8449-28.9664
		c-3.4499-8.8771-7.5536-22.2165-8.6744-46.7779c-1.212-26.5645-1.4685-34.5319-1.4685-101.7977s0.2565-75.2332,1.4685-101.7973
		c1.1208-24.5618,5.2245-37.9012,8.6744-46.7782c4.5698-11.7589,10.0294-20.151,18.8445-28.9661
		c8.8155-8.8155,17.2076-14.2751,28.9665-18.8449c8.877-3.4499,22.2164-7.5536,46.7778-8.6744
		C176.6873,45.6476,184.6547,45.3911,251.9205,45.3911 M251.9205,0c-68.4176,0-76.9965,0.2898-103.8664,1.5157
		c-26.8145,1.2235-45.1268,5.4821-61.1514,11.7098c-16.5658,6.4379-30.6151,15.0517-44.6204,29.0568
		C28.2772,56.2876,19.6634,70.3369,13.2255,86.9027c-6.2277,16.0246-10.4863,34.3369-11.7098,61.1514
		C0.2898,174.924,0,183.5027,0,251.9205c0,68.4176,0.2898,76.9965,1.5157,103.8664c1.2235,26.8145,5.4821,45.1267,11.7098,61.1514
		c6.4379,16.5656,15.0517,30.6151,29.0568,44.6204c14.0053,14.0051,28.0546,22.6189,44.6204,29.0568
		c16.0246,6.2277,34.3369,10.4863,61.1514,11.7098c26.8699,1.2262,35.4488,1.5157,103.8664,1.5157s76.9965-0.2895,103.8664-1.5157
		c26.8145-1.2235,45.1267-5.4821,61.1514-11.7098c16.5658-6.4379,30.6151-15.0517,44.6204-29.0568
		c14.0051-14.0053,22.6189-28.0546,29.0568-44.6204c6.2277-16.0247,10.4863-34.3369,11.7098-61.1514
		c1.2259-26.8699,1.5157-35.4488,1.5157-103.8664s-0.2898-76.9965-1.5157-103.8664c-1.2235-26.8145-5.4821-45.1268-11.7098-61.1514
		c-6.4379-16.5658-15.0517-30.6151-29.0568-44.6204c-14.0053-14.0051-28.0546-22.6189-44.6204-29.0568
		c-16.0247-6.2277-34.3369-10.4863-61.1514-11.7098C328.917,0.2898,320.3381,0,251.9205,0L251.9205,0z"/>
	<path class="st0" d="M251.9205,122.5559c-71.4461,0-129.3646,57.9185-129.3646,129.3646S180.4744,381.285,251.9205,381.285
		s129.3646-57.9184,129.3646-129.3645S323.3666,122.5559,251.9205,122.5559z M251.9205,335.894
		c-46.3773,0-83.9735-37.5962-83.9735-83.9735s37.5962-83.9735,83.9735-83.9735s83.9735,37.5962,83.9735,83.9735
		S298.2978,335.894,251.9205,335.894z"/>
	<circle class="st0" cx="386.3963" cy="117.4447" r="30.2304"/>
</g>
</svg>
