<!-- Generator: Adobe Illustrator 19.0.0, SVG Export Plug-In  -->
<svg version="1.1"
	 xmlns="http://www.w3.org/2000/svg" xmlns:xlink="http://www.w3.org/1999/xlink" xmlns:a="http://ns.adobe.com/AdobeSVGViewerExtensions/3.0/"
	 x="0px" y="0px" width="214.2251px" height="216.0007px" viewBox="0 0 214.2251 216.0007"
	 style="enable-background:new 0 0 214.2251 216.0007;" xml:space="preserve">
<style type="text/css">
	.st0{fill:#F4F4F4;}
</style>
<defs>
</defs>
<g>
	<g id="Nuva_Logo_1_">
		<path class="st0" d="M89.9957,215.7796c-1.614,0.498-4.075,0.126-5.47-0.825l-74.964-51.143c-1.395-0.952-2.64-3.108-2.766-4.792
			l-6.784-90.479c-0.126-1.684,0.783-4.002,2.021-5.15l66.493-61.71c1.238-1.149,3.617-1.883,5.286-1.631l89.696,13.515
			c1.67,0.252,3.727,1.654,4.571,3.116l45.369,78.599c0.844,1.463,1.03,3.945,0.414,5.517l-33.129,84.482
			c-0.616,1.572-2.441,3.265-4.054,3.763L89.9957,215.7796L89.9957,215.7796z M135.2327,142.4776
			c1.614-0.498,3.438-2.191,4.054-3.763l14.228-36.281c0.616-1.572,0.43-4.055-0.414-5.517l-19.484-33.756
			c-0.844-1.463-2.901-2.865-4.571-3.116l-38.519-5.804c-1.67-0.252-4.048,0.483-5.286,1.631l-28.555,26.502
			c-1.238,1.149-2.147,3.466-2.021,5.15l2.914,38.857c0.126,1.684,1.371,3.84,2.766,4.792l32.194,21.963
			c1.395,0.952,3.856,1.323,5.47,0.825L135.2327,142.4776L135.2327,142.4776z"/>
	</g>
</g>
</svg>
