<!-- Generator: Adobe Illustrator 19.0.0, SVG Export Plug-In  -->
<svg version="1.1"
	 xmlns="http://www.w3.org/2000/svg" xmlns:xlink="http://www.w3.org/1999/xlink" xmlns:a="http://ns.adobe.com/AdobeSVGViewerExtensions/3.0/"
	 x="0px" y="0px" width="582.8218px" height="62.919px" viewBox="0 0 582.8218 62.919"
	 style="enable-background:new 0 0 582.8218 62.919;" xml:space="preserve">
<style type="text/css">
	.st0{fill:#F4F4F4;}
</style>
<defs>
</defs>
<g>
	<path class="st0" d="M39.634,61.806L4.451,8.047v53.759H0V1.113h5.05l35.268,53.673V1.113h4.366v60.693L39.634,61.806
		L39.634,61.806z"/>
	<path class="st0" d="M92.102,62.919c-14.553,0-21.486-10.016-21.486-23.369V1.113h4.451v38.522
		c0,10.529,5.136,19.004,17.035,19.004c11.899,0,17.12-8.475,17.12-19.004V1.113h4.451v38.436
		C113.674,52.903,106.656,62.919,92.102,62.919z"/>
	<path class="st0" d="M156.984,61.806h-4.195L131.045,1.113h4.709l19.26,54.273l19.004-54.273h4.707L156.984,61.806z"/>
	<path class="st0" d="M231.796,61.806l-6.163-16.007h-29.361l-5.992,16.007h-4.624l23.027-60.693h4.366l23.285,60.693H231.796z
		 M210.824,7.277l-12.925,34.327h26.108L210.824,7.277z"/>
	<path class="st0" d="M254.392,61.806v-7.704h7.532v7.704H254.392z"/>
	<path class="st0" d="M317.3069,34.842l12.326,26.965h-4.88l-11.898-25.852h-21.145v25.852h-4.451V1.113h22.17
		c13.27,0,20.46,6.934,20.46,17.463C329.89,26.538,324.926,32.787,317.3069,34.842z M309.43,5.309h-17.719v26.537h17.719
		c10.017,0,15.837-4.623,15.837-13.269S319.447,5.309,309.43,5.309z"/>
	<path class="st0" d="M386.465,56.756c-3.767,3.595-8.989,6.163-15.581,6.163c-6.591,0-11.812-2.568-15.579-6.163
		c-6.849-6.592-7.619-16.607-7.619-25.339s0.77-18.661,7.619-25.253C359.072,2.569,364.293,0,370.884,0s11.814,2.569,15.581,6.164
		c6.847,6.591,7.619,16.521,7.619,25.253S393.312,50.164,386.465,56.756z M383.212,9.075c-3.168-3.081-7.619-4.708-12.328-4.708
		c-4.707,0-9.158,1.627-12.326,4.708c-5.992,5.735-6.25,15.152-6.25,22.343c0,7.19,0.258,16.693,6.25,22.428
		c3.168,3.081,7.619,4.708,12.326,4.708c4.709,0,9.16-1.627,12.328-4.708c5.992-5.735,6.248-15.238,6.248-22.428
		C389.46,24.227,389.204,14.81,383.212,9.075z"/>
	<path class="st0" d="M435.68,62.919c-5.82,0-11.812-2.397-16.007-6.591c-6.506-6.591-7.105-16.264-7.105-24.911
		s0.599-18.233,7.105-24.825c4.195-4.194,10.187-6.591,16.007-6.591c12.07,0,20.631,8.475,21.573,19.689h-4.624
		c-0.77-8.988-7.361-15.323-16.95-15.323c-5.393,0-9.501,1.883-12.754,5.222c-5.479,5.65-5.735,14.553-5.735,21.829
		c0,7.277,0.341,16.264,5.82,21.914c3.338,3.425,7.619,5.222,12.669,5.222c9.588,0,16.18-6.335,16.95-15.323h4.624
		C456.311,54.445,447.7499,62.919,435.68,62.919z"/>
	<path class="st0" d="M519.137,61.806l-20.117-34.67l-15.751,17.805v16.864h-4.536V1.113h4.536v37.409l33.385-37.409h5.479
		l-20.117,22.685l22.172,38.008H519.137z"/>
	<path class="st0" d="M578.028,57.013c-4.108,4.023-10.186,5.906-17.206,5.906c-6.934,0-12.927-2.226-16.95-6.506
		c-2.997-3.167-5.05-7.447-5.479-12.07h4.622c0.428,3.595,2.14,6.934,4.451,9.331c3.253,3.339,8.305,4.965,13.355,4.965
		c5.221,0,10.443-1.37,13.782-4.536c2.14-2.055,3.594-4.88,3.594-8.732c0-5.821-4.536-10.872-11.812-11.813l-11.3-1.455
		c-8.559-1.114-14.895-5.992-14.895-15.323c0-5.051,2.226-8.646,5.308-11.471c3.767-3.425,9.331-5.308,14.98-5.308
		c6.506,0,13.012,2.654,16.436,6.678c2.569,2.996,4.28,6.163,4.624,10.529h-4.538c-0.428-3.081-1.369-5.393-3.338-7.704
		c-2.654-3.253-7.619-5.222-13.183-5.222c-4.366,0-8.559,1.113-11.556,3.681c-2.311,2.055-4.108,4.88-4.108,8.818
		c0,7.19,5.136,9.93,10.699,10.614l11.471,1.456c9.416,1.198,15.837,7.961,15.837,16.521
		C582.822,50.678,580.852,54.188,578.028,57.013z"/>
</g>
</svg>
