<!-- Generator: Adobe Illustrator 19.0.0, SVG Export Plug-In  -->
<svg version="1.1"
	 xmlns="http://www.w3.org/2000/svg" xmlns:xlink="http://www.w3.org/1999/xlink" xmlns:a="http://ns.adobe.com/AdobeSVGViewerExtensions/3.0/"
	 x="0px" y="0px" width="273.3896px" height="222.1782px" viewBox="0 0 273.3896 222.1782"
	 style="enable-background:new 0 0 273.3896 222.1782;" xml:space="preserve">
<style type="text/css">
	.st0{fill:#FFFFFF;}
</style>
<defs>
</defs>
<path class="st0" d="M273.3896,26.3008c-10.0586,4.4609-20.8681,7.4765-32.2148,8.832
	c11.581-6.9414,20.4746-17.9336,24.6621-31.0313C255,10.5293,242.9961,15.1972,230.2197,17.7129
	C219.9883,6.8115,205.4111,0,189.2793,0c-30.9776,0-56.0908,25.1133-56.0908,56.0879c0,4.3965,0.4961,8.6767,1.4521,12.7822
	C88.0254,66.5312,46.6963,44.2012,19.0322,10.2666c-4.8281,8.2842-7.5937,17.9189-7.5937,28.1982
	c0,19.459,9.9023,36.627,24.9521,46.6856c-9.1943-0.291-17.8428-2.8145-25.4053-7.0157c-0.0039,0.2344-0.0048,0.4688-0.0048,0.7051
	c0,27.1763,19.3339,49.8462,44.9931,54.9986c-4.707,1.2812-9.6621,1.9668-14.7773,1.9668c-3.6143,0-7.128-0.3516-10.5528-1.0059
	c7.1377,22.2832,27.8516,38.5,52.3956,38.9531c-19.1963,15.043-43.3809,24.0098-69.6592,24.0098
	c-4.5274,0-8.9922-0.2656-13.3799-0.7832c24.8223,15.914,54.3047,25.1992,85.9795,25.1992
	c103.1689,0,159.5849-85.4668,159.5849-159.5864c0-2.4317-0.0546-4.8506-0.1621-7.2559
	C256.3603,47.4277,265.8701,37.5488,273.3896,26.3008z"/>
</svg>
